<mxfile host="app.diagrams.net" modified="2023-10-17T18:06:15.048Z" agent="Mozilla/5.0 (Windows NT 10.0; Win64; x64) AppleWebKit/537.36 (KHTML, like Gecko) Chrome/116.0.5845.967 YaBrowser/23.9.1.967 Yowser/2.5 Safari/537.36" etag="oXPNh02vkhuEWHooD7H3" version="22.0.4" type="device">
  <diagram name="Страница 1" id="GeovUSF9u1GVBPu4-7PI">
    <mxGraphModel dx="1434" dy="767" grid="0" gridSize="10" guides="1" tooltips="1" connect="1" arrows="1" fold="1" page="1" pageScale="1" pageWidth="827" pageHeight="1169" math="0" shadow="0">
      <root>
        <mxCell id="0" />
        <mxCell id="1" parent="0" />
        <mxCell id="tOKsdCV_gIAeUX3r8X2v-2" value="Play YandexMusic" style="ellipse;whiteSpace=wrap;html=1;fillColor=#f8cecc;strokeColor=#b85450;" parent="1" vertex="1">
          <mxGeometry x="230" y="290" width="120" height="80" as="geometry" />
        </mxCell>
        <mxCell id="tOKsdCV_gIAeUX3r8X2v-3" value="Play radio" style="ellipse;whiteSpace=wrap;html=1;fillColor=#f8cecc;strokeColor=#b85450;" parent="1" vertex="1">
          <mxGeometry x="509" y="230" width="100" height="50" as="geometry" />
        </mxCell>
        <mxCell id="tOKsdCV_gIAeUX3r8X2v-5" value="Playlists" style="ellipse;whiteSpace=wrap;html=1;fillColor=#fff2cc;strokeColor=#d6b656;" parent="1" vertex="1">
          <mxGeometry x="511" y="300" width="96" height="50" as="geometry" />
        </mxCell>
        <mxCell id="tOKsdCV_gIAeUX3r8X2v-6" value="Play&lt;br&gt;tracks by order" style="ellipse;whiteSpace=wrap;html=1;fillColor=#f8cecc;strokeColor=#b85450;" parent="1" vertex="1">
          <mxGeometry x="504" y="535" width="110" height="50" as="geometry" />
        </mxCell>
        <mxCell id="tOKsdCV_gIAeUX3r8X2v-11" value="play VK music" style="ellipse;whiteSpace=wrap;html=1;fillColor=#fff2cc;strokeColor=#d6b656;" parent="1" vertex="1">
          <mxGeometry x="230" y="400" width="120" height="70" as="geometry" />
        </mxCell>
        <mxCell id="tOKsdCV_gIAeUX3r8X2v-15" style="rounded=0;orthogonalLoop=1;jettySize=auto;html=1;exitX=0;exitY=1;exitDx=0;exitDy=0;" parent="1" source="tOKsdCV_gIAeUX3r8X2v-14" target="tOKsdCV_gIAeUX3r8X2v-5" edge="1">
          <mxGeometry relative="1" as="geometry" />
        </mxCell>
        <mxCell id="tOKsdCV_gIAeUX3r8X2v-14" value="Stored playists" style="ellipse;whiteSpace=wrap;html=1;fillColor=#d5e8d4;strokeColor=#82b366;" parent="1" vertex="1">
          <mxGeometry x="655" y="270" width="120" height="40" as="geometry" />
        </mxCell>
        <mxCell id="tOKsdCV_gIAeUX3r8X2v-17" style="rounded=0;orthogonalLoop=1;jettySize=auto;html=1;exitX=0;exitY=0.5;exitDx=0;exitDy=0;" parent="1" source="tOKsdCV_gIAeUX3r8X2v-16" target="tOKsdCV_gIAeUX3r8X2v-5" edge="1">
          <mxGeometry relative="1" as="geometry" />
        </mxCell>
        <mxCell id="tOKsdCV_gIAeUX3r8X2v-16" value="External playists" style="ellipse;whiteSpace=wrap;html=1;fillColor=#fff2cc;strokeColor=#d6b656;" parent="1" vertex="1">
          <mxGeometry x="660" y="330" width="110" height="40" as="geometry" />
        </mxCell>
        <mxCell id="tOKsdCV_gIAeUX3r8X2v-24" value="" style="endArrow=none;html=1;rounded=0;entryX=0;entryY=0.5;entryDx=0;entryDy=0;endFill=0;" parent="1" source="tOKsdCV_gIAeUX3r8X2v-1" target="tOKsdCV_gIAeUX3r8X2v-2" edge="1">
          <mxGeometry width="50" height="50" relative="1" as="geometry">
            <mxPoint x="120" y="330" as="sourcePoint" />
            <mxPoint x="440" y="470" as="targetPoint" />
          </mxGeometry>
        </mxCell>
        <mxCell id="tOKsdCV_gIAeUX3r8X2v-25" value="" style="endArrow=none;html=1;rounded=0;entryX=0;entryY=0;entryDx=0;entryDy=0;endFill=0;" parent="1" source="tOKsdCV_gIAeUX3r8X2v-1" target="tOKsdCV_gIAeUX3r8X2v-11" edge="1">
          <mxGeometry width="50" height="50" relative="1" as="geometry">
            <mxPoint x="120" y="330" as="sourcePoint" />
            <mxPoint x="230" y="340" as="targetPoint" />
          </mxGeometry>
        </mxCell>
        <mxCell id="tOKsdCV_gIAeUX3r8X2v-26" value="Choose one of found" style="ellipse;whiteSpace=wrap;html=1;fillColor=#fff2cc;strokeColor=#d6b656;" parent="1" vertex="1">
          <mxGeometry x="700" y="535" width="130" height="50" as="geometry" />
        </mxCell>
        <mxCell id="tOKsdCV_gIAeUX3r8X2v-27" value="Administrator" style="shape=umlActor;verticalLabelPosition=bottom;verticalAlign=top;html=1;outlineConnect=0;" parent="1" vertex="1">
          <mxGeometry x="70" y="630" width="30" height="60" as="geometry" />
        </mxCell>
        <mxCell id="tOKsdCV_gIAeUX3r8X2v-34" value="play YouTube" style="ellipse;whiteSpace=wrap;html=1;fillColor=#fff2cc;strokeColor=#d6b656;" parent="1" vertex="1">
          <mxGeometry x="230" y="500" width="120" height="70" as="geometry" />
        </mxCell>
        <mxCell id="tOKsdCV_gIAeUX3r8X2v-35" value="" style="endArrow=none;html=1;rounded=0;entryX=0;entryY=0.5;entryDx=0;entryDy=0;endFill=0;" parent="1" source="tOKsdCV_gIAeUX3r8X2v-1" target="tOKsdCV_gIAeUX3r8X2v-34" edge="1">
          <mxGeometry width="50" height="50" relative="1" as="geometry">
            <mxPoint x="120" y="330" as="sourcePoint" />
            <mxPoint x="258" y="450" as="targetPoint" />
          </mxGeometry>
        </mxCell>
        <mxCell id="tOKsdCV_gIAeUX3r8X2v-38" value="Change command prefix" style="ellipse;whiteSpace=wrap;html=1;fillColor=#f8cecc;strokeColor=#b85450;" parent="1" vertex="1">
          <mxGeometry x="230" y="620" width="120" height="60" as="geometry" />
        </mxCell>
        <mxCell id="tOKsdCV_gIAeUX3r8X2v-39" value="Change permissions&lt;br&gt;&amp;nbsp;to&amp;nbsp;use bot commands &lt;br&gt;for User" style="ellipse;whiteSpace=wrap;html=1;fillColor=#fff2cc;strokeColor=#d6b656;" parent="1" vertex="1">
          <mxGeometry x="215" y="700" width="150" height="60" as="geometry" />
        </mxCell>
        <mxCell id="2XSANgrfU7ZNBZAokw7T-1" value="" style="endArrow=none;html=1;rounded=0;exitX=0;exitY=0.5;exitDx=0;exitDy=0;" parent="1" source="tOKsdCV_gIAeUX3r8X2v-38" target="tOKsdCV_gIAeUX3r8X2v-27" edge="1">
          <mxGeometry width="50" height="50" relative="1" as="geometry">
            <mxPoint x="390" y="620" as="sourcePoint" />
            <mxPoint x="440" y="570" as="targetPoint" />
          </mxGeometry>
        </mxCell>
        <mxCell id="2XSANgrfU7ZNBZAokw7T-2" value="" style="endArrow=none;html=1;rounded=0;exitX=0;exitY=0.5;exitDx=0;exitDy=0;" parent="1" source="tOKsdCV_gIAeUX3r8X2v-39" target="tOKsdCV_gIAeUX3r8X2v-27" edge="1">
          <mxGeometry width="50" height="50" relative="1" as="geometry">
            <mxPoint x="240" y="680" as="sourcePoint" />
            <mxPoint x="110" y="671" as="targetPoint" />
          </mxGeometry>
        </mxCell>
        <mxCell id="2XSANgrfU7ZNBZAokw7T-4" value="" style="endArrow=block;html=1;rounded=0;endFill=0;" parent="1" edge="1">
          <mxGeometry width="50" height="50" relative="1" as="geometry">
            <mxPoint x="80" y="620" as="sourcePoint" />
            <mxPoint x="80" y="450" as="targetPoint" />
          </mxGeometry>
        </mxCell>
        <mxCell id="tOKsdCV_gIAeUX3r8X2v-1" value="User" style="shape=umlActor;verticalLabelPosition=bottom;verticalAlign=top;html=1;outlineConnect=0;" parent="1" vertex="1">
          <mxGeometry x="70" y="360" width="30" height="60" as="geometry" />
        </mxCell>
        <mxCell id="2XSANgrfU7ZNBZAokw7T-5" value="Extends" style="endArrow=classicThin;endSize=16;endFill=1;html=1;rounded=0;dashed=1;" parent="1" source="tOKsdCV_gIAeUX3r8X2v-2" target="tOKsdCV_gIAeUX3r8X2v-3" edge="1">
          <mxGeometry width="160" relative="1" as="geometry">
            <mxPoint x="330" y="600" as="sourcePoint" />
            <mxPoint x="490" y="600" as="targetPoint" />
          </mxGeometry>
        </mxCell>
        <mxCell id="2XSANgrfU7ZNBZAokw7T-11" value="" style="endArrow=classic;html=1;rounded=0;" parent="1" source="tOKsdCV_gIAeUX3r8X2v-2" target="tOKsdCV_gIAeUX3r8X2v-6" edge="1">
          <mxGeometry relative="1" as="geometry">
            <mxPoint x="356" y="354" as="sourcePoint" />
            <mxPoint x="445" y="375" as="targetPoint" />
          </mxGeometry>
        </mxCell>
        <mxCell id="2XSANgrfU7ZNBZAokw7T-12" value="Includes" style="edgeLabel;resizable=0;html=1;align=center;verticalAlign=middle;" parent="2XSANgrfU7ZNBZAokw7T-11" connectable="0" vertex="1">
          <mxGeometry relative="1" as="geometry" />
        </mxCell>
        <mxCell id="2XSANgrfU7ZNBZAokw7T-13" value="" style="endArrow=none;html=1;rounded=0;startArrow=classic;startFill=1;endFill=0;" parent="1" source="tOKsdCV_gIAeUX3r8X2v-6" target="tOKsdCV_gIAeUX3r8X2v-11" edge="1">
          <mxGeometry relative="1" as="geometry">
            <mxPoint x="366" y="364" as="sourcePoint" />
            <mxPoint x="455" y="385" as="targetPoint" />
          </mxGeometry>
        </mxCell>
        <mxCell id="2XSANgrfU7ZNBZAokw7T-14" value="Includes" style="edgeLabel;resizable=0;html=1;align=center;verticalAlign=middle;" parent="2XSANgrfU7ZNBZAokw7T-13" connectable="0" vertex="1">
          <mxGeometry relative="1" as="geometry" />
        </mxCell>
        <mxCell id="2XSANgrfU7ZNBZAokw7T-15" value="" style="endArrow=classic;html=1;rounded=0;startArrow=none;startFill=0;endFill=1;" parent="1" source="tOKsdCV_gIAeUX3r8X2v-34" target="tOKsdCV_gIAeUX3r8X2v-6" edge="1">
          <mxGeometry relative="1" as="geometry">
            <mxPoint x="376" y="374" as="sourcePoint" />
            <mxPoint x="465" y="395" as="targetPoint" />
          </mxGeometry>
        </mxCell>
        <mxCell id="2XSANgrfU7ZNBZAokw7T-16" value="Includes" style="edgeLabel;resizable=0;html=1;align=center;verticalAlign=middle;" parent="2XSANgrfU7ZNBZAokw7T-15" connectable="0" vertex="1">
          <mxGeometry relative="1" as="geometry" />
        </mxCell>
        <mxCell id="2XSANgrfU7ZNBZAokw7T-17" value="Extends" style="endArrow=classicThin;endSize=16;endFill=1;html=1;rounded=0;dashed=1;" parent="1" source="tOKsdCV_gIAeUX3r8X2v-11" target="tOKsdCV_gIAeUX3r8X2v-5" edge="1">
          <mxGeometry width="160" relative="1" as="geometry">
            <mxPoint x="353" y="321" as="sourcePoint" />
            <mxPoint x="443" y="289" as="targetPoint" />
          </mxGeometry>
        </mxCell>
        <mxCell id="2XSANgrfU7ZNBZAokw7T-18" value="Extends" style="endArrow=classicThin;endSize=16;endFill=1;html=1;rounded=0;dashed=1;" parent="1" source="tOKsdCV_gIAeUX3r8X2v-2" target="tOKsdCV_gIAeUX3r8X2v-5" edge="1">
          <mxGeometry width="160" relative="1" as="geometry">
            <mxPoint x="363" y="331" as="sourcePoint" />
            <mxPoint x="453" y="299" as="targetPoint" />
          </mxGeometry>
        </mxCell>
        <mxCell id="2XSANgrfU7ZNBZAokw7T-19" value="Extends" style="endArrow=classicThin;endSize=16;endFill=1;html=1;rounded=0;dashed=1;" parent="1" source="tOKsdCV_gIAeUX3r8X2v-34" target="tOKsdCV_gIAeUX3r8X2v-5" edge="1">
          <mxGeometry width="160" relative="1" as="geometry">
            <mxPoint x="373" y="341" as="sourcePoint" />
            <mxPoint x="463" y="309" as="targetPoint" />
          </mxGeometry>
        </mxCell>
        <mxCell id="2XSANgrfU7ZNBZAokw7T-20" value="Extends" style="endArrow=classicThin;endSize=16;endFill=1;html=1;rounded=0;dashed=1;entryX=0;entryY=0.5;entryDx=0;entryDy=0;exitX=1;exitY=0.5;exitDx=0;exitDy=0;" parent="1" source="tOKsdCV_gIAeUX3r8X2v-6" target="tOKsdCV_gIAeUX3r8X2v-26" edge="1">
          <mxGeometry width="160" relative="1" as="geometry">
            <mxPoint x="360" y="339" as="sourcePoint" />
            <mxPoint x="534" y="336" as="targetPoint" />
          </mxGeometry>
        </mxCell>
        <mxCell id="2XSANgrfU7ZNBZAokw7T-21" value="Pause/play" style="ellipse;whiteSpace=wrap;html=1;fillColor=#f8cecc;strokeColor=#b85450;" parent="1" vertex="1">
          <mxGeometry x="715" y="490" width="100" height="30" as="geometry" />
        </mxCell>
        <mxCell id="2XSANgrfU7ZNBZAokw7T-23" value="Repeat track" style="ellipse;whiteSpace=wrap;html=1;fillColor=#fff2cc;strokeColor=#d6b656;" parent="1" vertex="1">
          <mxGeometry x="715" y="440" width="115" height="30" as="geometry" />
        </mxCell>
        <mxCell id="2XSANgrfU7ZNBZAokw7T-24" value="Enable cycles" style="ellipse;whiteSpace=wrap;html=1;fillColor=#fff2cc;strokeColor=#d6b656;" parent="1" vertex="1">
          <mxGeometry x="715" y="390" width="105" height="30" as="geometry" />
        </mxCell>
        <mxCell id="2XSANgrfU7ZNBZAokw7T-25" value="Erase from playlist" style="ellipse;whiteSpace=wrap;html=1;fillColor=#fff2cc;strokeColor=#d6b656;" parent="1" vertex="1">
          <mxGeometry x="705" y="600" width="137.5" height="30" as="geometry" />
        </mxCell>
        <mxCell id="2XSANgrfU7ZNBZAokw7T-26" value="Next track" style="ellipse;whiteSpace=wrap;html=1;fillColor=#f8cecc;strokeColor=#b85450;" parent="1" vertex="1">
          <mxGeometry x="715" y="660" width="85" height="30" as="geometry" />
        </mxCell>
        <mxCell id="2XSANgrfU7ZNBZAokw7T-27" value="Extends" style="endArrow=classicThin;endSize=16;endFill=1;html=1;rounded=0;dashed=1;entryX=0;entryY=0.5;entryDx=0;entryDy=0;" parent="1" source="tOKsdCV_gIAeUX3r8X2v-6" target="2XSANgrfU7ZNBZAokw7T-24" edge="1">
          <mxGeometry width="160" relative="1" as="geometry">
            <mxPoint x="624" y="570" as="sourcePoint" />
            <mxPoint x="710" y="570" as="targetPoint" />
          </mxGeometry>
        </mxCell>
        <mxCell id="2XSANgrfU7ZNBZAokw7T-28" value="Extends" style="endArrow=classicThin;endSize=16;endFill=1;html=1;rounded=0;dashed=1;entryX=0;entryY=0.5;entryDx=0;entryDy=0;" parent="1" source="tOKsdCV_gIAeUX3r8X2v-6" target="2XSANgrfU7ZNBZAokw7T-23" edge="1">
          <mxGeometry width="160" relative="1" as="geometry">
            <mxPoint x="634" y="580" as="sourcePoint" />
            <mxPoint x="720" y="580" as="targetPoint" />
          </mxGeometry>
        </mxCell>
        <mxCell id="2XSANgrfU7ZNBZAokw7T-29" value="Extends" style="endArrow=classicThin;endSize=16;endFill=1;html=1;rounded=0;dashed=1;entryX=0;entryY=0.5;entryDx=0;entryDy=0;" parent="1" source="tOKsdCV_gIAeUX3r8X2v-6" target="2XSANgrfU7ZNBZAokw7T-21" edge="1">
          <mxGeometry width="160" relative="1" as="geometry">
            <mxPoint x="644" y="590" as="sourcePoint" />
            <mxPoint x="730" y="590" as="targetPoint" />
          </mxGeometry>
        </mxCell>
        <mxCell id="2XSANgrfU7ZNBZAokw7T-30" value="Extends" style="endArrow=classicThin;endSize=16;endFill=1;html=1;rounded=0;dashed=1;entryX=0;entryY=0.5;entryDx=0;entryDy=0;" parent="1" source="tOKsdCV_gIAeUX3r8X2v-6" target="2XSANgrfU7ZNBZAokw7T-25" edge="1">
          <mxGeometry width="160" relative="1" as="geometry">
            <mxPoint x="654" y="600" as="sourcePoint" />
            <mxPoint x="740" y="600" as="targetPoint" />
          </mxGeometry>
        </mxCell>
        <mxCell id="2XSANgrfU7ZNBZAokw7T-31" value="Extends" style="endArrow=classicThin;endSize=16;endFill=1;html=1;rounded=0;dashed=1;entryX=0;entryY=0.5;entryDx=0;entryDy=0;" parent="1" source="tOKsdCV_gIAeUX3r8X2v-6" target="2XSANgrfU7ZNBZAokw7T-26" edge="1">
          <mxGeometry width="160" relative="1" as="geometry">
            <mxPoint x="664" y="610" as="sourcePoint" />
            <mxPoint x="750" y="610" as="targetPoint" />
          </mxGeometry>
        </mxCell>
        <mxCell id="2XSANgrfU7ZNBZAokw7T-32" value="Choose User" style="ellipse;whiteSpace=wrap;html=1;fillColor=#fff2cc;strokeColor=#d6b656;" parent="1" vertex="1">
          <mxGeometry x="509" y="700" width="100" height="30" as="geometry" />
        </mxCell>
        <mxCell id="2XSANgrfU7ZNBZAokw7T-33" value="Load list of permissions" style="ellipse;whiteSpace=wrap;html=1;fillColor=#fff2cc;strokeColor=#d6b656;" parent="1" vertex="1">
          <mxGeometry x="504" y="760" width="110" height="50" as="geometry" />
        </mxCell>
        <mxCell id="2XSANgrfU7ZNBZAokw7T-34" value="" style="endArrow=classic;html=1;rounded=0;startArrow=none;startFill=0;endFill=1;entryX=0;entryY=0.5;entryDx=0;entryDy=0;" parent="1" source="tOKsdCV_gIAeUX3r8X2v-39" target="2XSANgrfU7ZNBZAokw7T-32" edge="1">
          <mxGeometry relative="1" as="geometry">
            <mxPoint x="359" y="550" as="sourcePoint" />
            <mxPoint x="515" y="565" as="targetPoint" />
          </mxGeometry>
        </mxCell>
        <mxCell id="2XSANgrfU7ZNBZAokw7T-35" value="Includes" style="edgeLabel;resizable=0;html=1;align=center;verticalAlign=middle;" parent="2XSANgrfU7ZNBZAokw7T-34" connectable="0" vertex="1">
          <mxGeometry relative="1" as="geometry" />
        </mxCell>
        <mxCell id="2XSANgrfU7ZNBZAokw7T-36" value="" style="endArrow=classic;html=1;rounded=0;startArrow=none;startFill=0;endFill=1;entryX=0;entryY=0.5;entryDx=0;entryDy=0;" parent="1" source="tOKsdCV_gIAeUX3r8X2v-39" target="2XSANgrfU7ZNBZAokw7T-33" edge="1">
          <mxGeometry relative="1" as="geometry">
            <mxPoint x="369" y="560" as="sourcePoint" />
            <mxPoint x="525" y="575" as="targetPoint" />
          </mxGeometry>
        </mxCell>
        <mxCell id="2XSANgrfU7ZNBZAokw7T-37" value="Includes" style="edgeLabel;resizable=0;html=1;align=center;verticalAlign=middle;" parent="2XSANgrfU7ZNBZAokw7T-36" connectable="0" vertex="1">
          <mxGeometry relative="1" as="geometry" />
        </mxCell>
        <mxCell id="2XSANgrfU7ZNBZAokw7T-38" value="Cancel added track" style="ellipse;whiteSpace=wrap;html=1;fillColor=#fff2cc;strokeColor=#d6b656;" parent="1" vertex="1">
          <mxGeometry x="705" y="715" width="120" height="35" as="geometry" />
        </mxCell>
        <mxCell id="2XSANgrfU7ZNBZAokw7T-39" value="Extends" style="endArrow=classicThin;endSize=16;endFill=1;html=1;rounded=0;dashed=1;entryX=0;entryY=0.5;entryDx=0;entryDy=0;" parent="1" source="tOKsdCV_gIAeUX3r8X2v-6" target="2XSANgrfU7ZNBZAokw7T-38" edge="1">
          <mxGeometry width="160" relative="1" as="geometry">
            <mxPoint x="598" y="591" as="sourcePoint" />
            <mxPoint x="725" y="685" as="targetPoint" />
          </mxGeometry>
        </mxCell>
        <mxCell id="2XSANgrfU7ZNBZAokw7T-40" value="MVP" style="rounded=0;whiteSpace=wrap;html=1;fillColor=#f8cecc;strokeColor=#b85450;" parent="1" vertex="1">
          <mxGeometry x="230" y="880" width="60" height="30" as="geometry" />
        </mxCell>
        <mxCell id="2XSANgrfU7ZNBZAokw7T-41" value="EXTENDED" style="rounded=0;whiteSpace=wrap;html=1;fillColor=#fff2cc;strokeColor=#d6b656;" parent="1" vertex="1">
          <mxGeometry x="440" y="880" width="90" height="30" as="geometry" />
        </mxCell>
        <mxCell id="2XSANgrfU7ZNBZAokw7T-42" value="FUTURE PLANS" style="rounded=0;whiteSpace=wrap;html=1;fillColor=#d5e8d4;strokeColor=#82b366;" parent="1" vertex="1">
          <mxGeometry x="620" y="880" width="110" height="30" as="geometry" />
        </mxCell>
        <mxCell id="2XSANgrfU7ZNBZAokw7T-43" value="Enable tracks via Alice voice assistant" style="ellipse;whiteSpace=wrap;html=1;fillColor=#d5e8d4;strokeColor=#82b366;" parent="1" vertex="1">
          <mxGeometry x="215" y="190" width="150" height="70" as="geometry" />
        </mxCell>
        <mxCell id="2XSANgrfU7ZNBZAokw7T-44" value="" style="endArrow=none;html=1;rounded=0;entryX=0;entryY=0.5;entryDx=0;entryDy=0;endFill=0;" parent="1" source="tOKsdCV_gIAeUX3r8X2v-1" target="2XSANgrfU7ZNBZAokw7T-43" edge="1">
          <mxGeometry width="50" height="50" relative="1" as="geometry">
            <mxPoint x="110" y="394" as="sourcePoint" />
            <mxPoint x="240" y="340" as="targetPoint" />
          </mxGeometry>
        </mxCell>
      </root>
    </mxGraphModel>
  </diagram>
</mxfile>
